<svg width="19" height="10" viewBox="0 0 19 10" fill="none" xmlns="http://www.w3.org/2000/svg">
<path fill-rule="evenodd" clip-rule="evenodd" d="M15.0391 2.05991C15.5169 1.78291 16.1288 1.94568 16.4058 2.42348L18.3737 5.81801C18.6507 6.29581 18.488 6.90769 18.0102 7.18469C17.5324 7.46169 16.9205 7.29892 16.6435 6.82112L14.6755 3.42659C14.3985 2.94879 14.5613 2.33691 15.0391 2.05991Z" fill="#B7BEC0"/>
<path fill-rule="evenodd" clip-rule="evenodd" d="M11.3367 3.83083C11.8806 3.735 12.3992 4.09824 12.495 4.64215L13.1051 8.10543C13.201 8.64934 12.8377 9.16795 12.2938 9.26377C11.7499 9.3596 11.2313 8.99636 11.1355 8.45245L10.5253 4.98917C10.4295 4.44526 10.7927 3.92665 11.3367 3.83083Z" fill="#B7BEC0"/>
<path fill-rule="evenodd" clip-rule="evenodd" d="M7.17154 3.82216C7.71549 3.91776 8.07895 4.43621 7.98336 4.98016L7.3732 8.45203C7.27761 8.99598 6.75916 9.35944 6.21521 9.26385C5.67126 9.16825 5.3078 8.6498 5.40339 8.10585L6.01355 4.63398C6.10914 4.09003 6.62759 3.72657 7.17154 3.82216Z" fill="#B7BEC0"/>
<path fill-rule="evenodd" clip-rule="evenodd" d="M3.46763 2.05881C3.94603 2.33477 4.11014 2.94629 3.83419 3.42469L1.86622 6.83641C1.59027 7.31481 0.978741 7.47893 0.50034 7.20297C0.0219388 6.92702 -0.142177 6.31549 0.133778 5.83709L2.10175 2.42537C2.3777 1.94697 2.98923 1.78286 3.46763 2.05881Z" fill="#B7BEC0"/>
<path fill-rule="evenodd" clip-rule="evenodd" d="M0.380265 0.222093C0.80991 -0.124928 1.43952 -0.0579483 1.78654 0.371697C3.11982 2.02243 5.50839 4.04769 9.2586 4.04769C13.0088 4.04769 15.3974 2.02243 16.7307 0.371697C17.0777 -0.0579483 17.7073 -0.124928 18.1369 0.222093C18.5666 0.569114 18.6336 1.19873 18.2865 1.62837C16.7323 3.55264 13.8271 6.04769 9.2586 6.04769C4.69006 6.04769 1.78488 3.55264 0.230661 1.62837C-0.11636 1.19873 -0.0493805 0.569114 0.380265 0.222093Z" fill="#B7BEC0"/>
</svg>
