<svg width="18" height="21" viewBox="0 0 18 21" fill="none" xmlns="http://www.w3.org/2000/svg">
<path d="M14.8337 15.0006L9 20.8343L3.16634 15.0006C2.01256 13.8468 1.22684 12.3768 0.908518 10.7764C0.590198 9.17611 0.753581 7.51731 1.37801 6.00983C2.00243 4.50235 3.05986 3.21388 4.41656 2.30736C5.77326 1.40084 7.36831 0.916992 9 0.916992C10.6317 0.916992 12.2267 1.40084 13.5834 2.30736C14.9402 3.21388 15.9976 4.50235 16.622 6.00983C17.2464 7.51731 17.4098 9.17611 17.0915 10.7764C16.7732 12.3768 15.9874 13.8468 14.8337 15.0006V15.0006ZM9 11.0003C9.48623 11.0003 9.95255 10.8071 10.2964 10.4633C10.6402 10.1195 10.8333 9.65315 10.8333 9.16692C10.8333 8.68069 10.6402 8.21438 10.2964 7.87056C9.95255 7.52674 9.48623 7.33359 9 7.33359C8.51377 7.33359 8.04746 7.52674 7.70364 7.87056C7.35982 8.21438 7.16667 8.68069 7.16667 9.16692C7.16667 9.65315 7.35982 10.1195 7.70364 10.4633C8.04746 10.8071 8.51377 11.0003 9 11.0003Z" fill="#20B84B"/>
</svg>
