<svg width="20" height="20" viewBox="0 0 20 20" fill="none" xmlns="http://www.w3.org/2000/svg">
<path fill-rule="evenodd" clip-rule="evenodd" d="M5.97988 2.80068C2.92688 4.09818 1.50376 7.62495 2.80126 10.678C4.09876 13.731 7.62553 15.1541 10.6785 13.8566C13.7315 12.5591 15.1547 9.03231 13.8572 5.9793C12.5597 2.9263 9.03288 1.50318 5.97988 2.80068ZM1.11398 11.395C-0.579545 7.41017 1.27795 2.80693 5.26281 1.1134C9.24767 -0.580126 13.8509 1.27737 15.5444 5.26223C17.238 9.24709 15.3805 13.8503 11.3956 15.5439C7.41075 17.2374 2.80751 15.3799 1.11398 11.395Z" fill="#B7BEC0"/>
<path fill-rule="evenodd" clip-rule="evenodd" d="M12.5754 12.5753C12.9334 12.2174 13.5138 12.2174 13.8718 12.5753L19.2419 17.9455C19.5999 18.3035 19.5999 18.8839 19.2419 19.2418C18.884 19.5998 18.3036 19.5998 17.9456 19.2418L12.5754 13.8717C12.2175 13.5137 12.2175 12.9333 12.5754 12.5753Z" fill="#B7BEC0"/>
</svg>
