<svg width="17" height="16" viewBox="0 0 17 16" fill="none" xmlns="http://www.w3.org/2000/svg">
<path fill-rule="evenodd" clip-rule="evenodd" d="M11.7814 2.33014C10.9869 1.54443 9.72073 1.56696 8.95337 2.38047C8.94965 2.38442 8.94589 2.38833 8.9421 2.3922L3.2185 8.25205C3.21848 8.25206 3.21851 8.25204 3.2185 8.25205C1.87958 9.62303 1.87956 11.8458 3.2185 13.2168C4.55745 14.5878 6.72831 14.5878 8.06723 13.2168L15.0367 6.07995C15.3715 5.7372 15.9142 5.73717 16.2489 6.0799C16.5837 6.42262 16.5837 6.97831 16.249 7.32107L9.28004 14.4573C9.27984 14.4576 9.28024 14.4571 9.28004 14.4573C7.27163 16.5138 4.01474 16.5144 2.00632 14.458C-0.00210607 12.4015 -0.00210446 9.06734 2.00631 7.01088L7.72585 1.15519C9.15148 -0.349848 11.4987 -0.389706 12.9723 1.06758C14.4478 2.52676 14.4887 4.9344 13.0636 6.4452C13.0356 6.47491 13.007 6.50417 12.9781 6.53295L7.25929 12.3918L6.65303 11.7713L7.24859 12.4025C6.34073 13.3006 4.89371 13.2751 4.01659 12.3455C3.16095 11.4387 3.16073 10.0008 4.01609 9.09374L4.02643 9.08277L9.75096 3.21956C10.0856 2.87677 10.6284 2.87667 10.9631 3.21936C11.2979 3.56204 11.298 4.11773 10.9633 4.46053L5.24534 10.3172C5.03551 10.5442 5.0369 10.9006 5.24947 11.1259C5.4674 11.3569 5.82605 11.3646 6.05326 11.1443L11.7813 5.276C11.7979 5.25953 11.8144 5.24285 11.8305 5.22578C12.5979 4.41227 12.5759 3.11585 11.7814 2.33014Z" fill="#20B84B"/>
</svg>
