<svg width="246" height="44" viewBox="0 0 246 44" fill="none" xmlns="http://www.w3.org/2000/svg">
<g clip-path="url(#clip0_319_928)">
<path d="M22.2024 44C34.4645 44 44.4049 34.1503 44.4049 22C44.4049 9.84974 34.4645 0 22.2024 0C9.94037 0 0 9.84974 0 22C0 34.1503 9.94037 44 22.2024 44Z" fill="white"/>
<path d="M21.9592 13.2L23.2914 36.08C29.138 35.0533 37.0569 27.984 21.9592 7.91999C7.21678 27.456 14.6324 34.8333 20.183 36.08L21.9592 13.2Z" fill="#20B84B"/>
<path d="M28.8632 27.72C26.2844 32.3301 23.6442 33.7475 22.6465 33.88V31.4955C22.6465 30.2237 26.7909 28.4486 28.8632 27.72Z" fill="white"/>
<path d="M14.6536 27.72C17.2324 32.3301 19.8725 33.7475 20.8703 33.88V31.4955C20.8703 30.2237 16.7258 28.4486 14.6536 27.72Z" fill="white"/>
<path d="M26.6429 22C24.801 25.2929 22.9151 26.3054 22.2024 26.4V24.6968C22.2024 23.7884 25.1628 22.5204 26.6429 22Z" fill="white"/>
<path d="M24.8667 16.72C23.7615 18.6957 22.6301 19.3032 22.2024 19.36V18.3381C22.2024 17.793 23.9786 17.0323 24.8667 16.72Z" fill="white"/>
<path d="M19.0941 16.72C20.1993 18.6957 21.3308 19.3032 21.7584 19.36V18.3381C21.7584 17.793 19.9822 17.0323 19.0941 16.72Z" fill="white"/>
<path d="M16.8738 22C18.7158 25.2929 20.6017 26.3054 21.3143 26.4V24.6968C21.3143 23.7884 18.354 22.5204 16.8738 22Z" fill="white"/>
<path d="M75.7085 21.0778H90.6712V23.3587C90.6712 27.5827 89.3071 31.0042 86.5788 33.623C83.8506 36.2419 80.3266 37.5514 76.0069 37.5514C71.403 37.5514 67.5806 36.073 64.5398 33.1162C61.5274 30.1312 60.0211 26.4986 60.0211 22.2182C60.0211 17.9098 61.5132 14.263 64.4972 11.2781C67.5096 8.29312 71.2325 6.80064 75.6659 6.80064C78.4225 6.80064 80.9519 7.42016 83.2538 8.6592C85.5557 9.89824 87.3604 11.5738 88.6676 13.6858L83.6375 16.5581C82.927 15.3472 81.847 14.3616 80.3977 13.6013C78.9483 12.841 77.3568 12.4608 75.6233 12.4608C72.7529 12.4608 70.4083 13.3901 68.5895 15.2486C66.7707 17.0509 65.8613 19.3741 65.8613 22.2182C65.8613 25.0061 66.7849 27.3152 68.6321 29.1456C70.4794 30.9478 72.9519 31.849 76.0495 31.849C78.2947 31.849 80.1703 31.3562 81.6765 30.3706C83.1827 29.385 84.2058 28.0051 84.7458 26.231H75.7085V21.0778ZM100.099 15.84V19.4726C100.582 18.1491 101.406 17.1494 102.571 16.4736C103.736 15.7696 105.072 15.4176 106.578 15.4176V21.5002C104.902 21.2749 103.395 21.6128 102.06 22.5139C100.752 23.3869 100.099 24.8371 100.099 26.8646V36.96H94.5997V15.84H100.099ZM125.203 18.3322V15.84H130.702V36.96H125.203V34.4678C123.554 36.5235 121.238 37.5514 118.254 37.5514C115.412 37.5514 112.968 36.4813 110.922 34.3411C108.904 32.1728 107.895 29.5258 107.895 26.4C107.895 23.3024 108.904 20.6694 110.922 18.5011C112.968 16.3328 115.412 15.2486 118.254 15.2486C121.238 15.2486 123.554 16.2765 125.203 18.3322ZM115.057 30.7085C116.165 31.8067 117.572 32.3558 119.277 32.3558C120.982 32.3558 122.389 31.8067 123.498 30.7085C124.634 29.5821 125.203 28.1459 125.203 26.4C125.203 24.6541 124.634 23.232 123.498 22.1338C122.389 21.0074 120.982 20.4442 119.277 20.4442C117.572 20.4442 116.165 21.0074 115.057 22.1338C113.949 23.232 113.395 24.6541 113.395 26.4C113.395 28.1459 113.949 29.5821 115.057 30.7085ZM140.594 21.8381C140.594 22.7392 141.887 23.5136 144.473 24.1613C145.383 24.3584 146.207 24.5978 146.946 24.8794C147.685 25.1328 148.424 25.513 149.163 26.0198C149.93 26.4986 150.527 27.1462 150.953 27.9629C151.379 28.7795 151.592 29.7229 151.592 30.793C151.592 32.9613 150.768 34.6368 149.12 35.8195C147.472 36.9741 145.44 37.5514 143.024 37.5514C138.648 37.5514 135.664 35.8758 134.072 32.5248L138.847 29.8637C139.5 31.6941 140.893 32.6093 143.024 32.6093C144.985 32.6093 145.965 32.0038 145.965 30.793C145.965 29.8918 144.672 29.1174 142.086 28.4698C141.12 28.2163 140.296 27.9629 139.614 27.7094C138.932 27.456 138.193 27.0899 137.397 26.6112C136.601 26.1043 135.99 25.4707 135.564 24.7104C135.166 23.9219 134.967 23.0067 134.967 21.9648C134.967 19.881 135.735 18.2477 137.269 17.065C138.832 15.8541 140.765 15.2486 143.067 15.2486C144.8 15.2486 146.378 15.6429 147.799 16.4314C149.219 17.1917 150.342 18.2899 151.166 19.7261L146.477 22.2605C145.795 20.8243 144.658 20.1062 143.067 20.1062C142.356 20.1062 141.759 20.2752 141.276 20.6131C140.822 20.9229 140.594 21.3312 140.594 21.8381ZM159.078 21.8381C159.078 22.7392 160.371 23.5136 162.957 24.1613C163.866 24.3584 164.691 24.5978 165.429 24.8794C166.168 25.1328 166.907 25.513 167.646 26.0198C168.414 26.4986 169.01 27.1462 169.437 27.9629C169.863 28.7795 170.076 29.7229 170.076 30.793C170.076 32.9613 169.252 34.6368 167.604 35.8195C165.955 36.9741 163.923 37.5514 161.508 37.5514C157.131 37.5514 154.147 35.8758 152.556 32.5248L157.33 29.8637C157.984 31.6941 159.376 32.6093 161.508 32.6093C163.469 32.6093 164.449 32.0038 164.449 30.793C164.449 29.8918 163.156 29.1174 160.57 28.4698C159.604 28.2163 158.779 27.9629 158.097 27.7094C157.415 27.456 156.676 27.0899 155.881 26.6112C155.085 26.1043 154.474 25.4707 154.048 24.7104C153.65 23.9219 153.451 23.0067 153.451 21.9648C153.451 19.881 154.218 18.2477 155.753 17.065C157.316 15.8541 159.248 15.2486 161.55 15.2486C163.284 15.2486 164.861 15.6429 166.282 16.4314C167.703 17.1917 168.826 18.2899 169.65 19.7261L164.961 22.2605C164.279 20.8243 163.142 20.1062 161.55 20.1062C160.84 20.1062 160.243 20.2752 159.76 20.6131C159.305 20.9229 159.078 21.3312 159.078 21.8381Z" fill="#E9EDEF"/>
<path d="M182.56 37.5514C177.87 37.5514 174.588 35.6787 172.712 31.9334L177.785 29.0611C178.723 30.9197 180.315 31.849 182.56 31.849C184.094 31.849 185.245 31.497 186.013 30.793C186.808 30.0608 187.206 29.047 187.206 27.7517V7.39199H193.046V27.7517C193.046 30.8493 192.066 33.257 190.105 34.9747C188.172 36.6925 185.657 37.5514 182.56 37.5514ZM216.043 34.3411C213.883 36.4813 211.211 37.5514 208.029 37.5514C204.846 37.5514 202.174 36.4813 200.014 34.3411C197.854 32.201 196.775 29.5539 196.775 26.4C196.775 23.2742 197.854 20.6413 200.014 18.5011C202.203 16.3328 204.874 15.2486 208.029 15.2486C211.183 15.2486 213.854 16.3328 216.043 18.5011C218.231 20.6694 219.325 23.3024 219.325 26.4C219.325 29.5258 218.231 32.1728 216.043 34.3411ZM203.894 30.5818C205.002 31.68 206.38 32.2291 208.029 32.2291C209.677 32.2291 211.055 31.68 212.163 30.5818C213.272 29.4835 213.826 28.0896 213.826 26.4C213.826 24.7104 213.272 23.3165 212.163 22.2182C211.055 21.12 209.677 20.5709 208.029 20.5709C206.38 20.5709 205.002 21.12 203.894 22.2182C202.814 23.3446 202.274 24.7386 202.274 26.4C202.274 28.0614 202.814 29.4554 203.894 30.5818ZM235.599 15.2486C238.469 15.2486 240.913 16.3328 242.931 18.5011C244.977 20.6694 246 23.3024 246 26.4C246 29.5539 244.977 32.201 242.931 34.3411C240.941 36.4813 238.497 37.5514 235.599 37.5514C232.615 37.5514 230.313 36.5235 228.693 34.4678V36.96H223.194V7.39199H228.693V18.3322C230.313 16.2765 232.615 15.2486 235.599 15.2486ZM230.355 30.7085C231.464 31.8067 232.87 32.3558 234.576 32.3558C236.281 32.3558 237.687 31.8067 238.796 30.7085C239.933 29.5821 240.501 28.1459 240.501 26.4C240.501 24.6541 239.933 23.232 238.796 22.1338C237.687 21.0074 236.281 20.4442 234.576 20.4442C232.87 20.4442 231.464 21.0074 230.355 22.1338C229.247 23.232 228.693 24.6541 228.693 26.4C228.693 28.1459 229.247 29.5821 230.355 30.7085Z" fill="white"/>
</g>
<defs>
<clipPath id="clip0_319_928">
<rect width="246" height="44" fill="white"/>
</clipPath>
</defs>
</svg>
