<svg width="19" height="13" viewBox="0 0 19 13" fill="none" xmlns="http://www.w3.org/2000/svg">
<path fill-rule="evenodd" clip-rule="evenodd" d="M2.25021 3.00289C3.73903 1.51407 6.08751 0 9.4312 0C12.7749 0 15.1234 1.51407 16.6122 3.00289C17.3537 3.74442 17.8879 4.48421 18.2381 5.04031C18.4136 5.31914 18.5443 5.55406 18.6329 5.7231C18.6772 5.80769 18.7111 5.876 18.7348 5.92531C18.7467 5.94998 18.756 5.96991 18.7629 5.98477L18.7714 6.00324L18.7742 6.00954L18.7753 6.01195L18.7757 6.01297C18.7759 6.01343 18.7761 6.01386 17.8623 6.42C18.7761 6.82614 18.7759 6.82657 18.7757 6.82703L18.7753 6.82805L18.7742 6.83046L18.7714 6.83676L18.7629 6.85523C18.756 6.87009 18.7467 6.89002 18.7348 6.91468C18.7111 6.964 18.6772 7.03231 18.6329 7.1169C18.5443 7.28594 18.4136 7.52086 18.2381 7.79969C17.8879 8.35579 17.3537 9.09558 16.6122 9.83711C15.1234 11.3259 12.7749 12.84 9.4312 12.84C6.08751 12.84 3.73903 11.3259 2.25021 9.83711C1.50868 9.09558 0.974481 8.35579 0.624345 7.79969C0.448786 7.52086 0.318075 7.28594 0.229529 7.1169C0.18522 7.03231 0.151356 6.964 0.127613 6.91468C0.115739 6.89002 0.106385 6.87009 0.0995123 6.85523L0.0910546 6.83676L0.0882091 6.83046L0.0871303 6.82805L0.0866767 6.82703C0.0864738 6.82657 0.0862802 6.82614 1.00009 6.42C0.0862802 6.01386 0.0864738 6.01343 0.0866767 6.01297L0.0871303 6.01195L0.0882091 6.00954L0.0910546 6.00324L0.0995123 5.98477C0.106385 5.96991 0.115739 5.94998 0.127613 5.92531C0.151356 5.876 0.18522 5.80769 0.229529 5.7231C0.318075 5.55406 0.448786 5.31914 0.624345 5.04031C0.974481 4.48421 1.50868 3.74442 2.25021 3.00289ZM1.00009 6.42L0.0866767 6.01297C-0.0282412 6.27154 -0.0282412 6.56846 0.0866767 6.82703L1.00009 6.42ZM2.12802 6.42C2.18093 6.32751 2.24377 6.22194 2.31681 6.10594C2.60654 5.64579 3.05095 5.03058 3.66442 4.41711C4.8856 3.19593 6.75267 2 9.4312 2C12.1097 2 13.9768 3.19593 15.198 4.41711C15.8115 5.03058 16.2559 5.64579 16.5456 6.10594C16.6186 6.22194 16.6815 6.32751 16.7344 6.42C16.6815 6.51249 16.6186 6.61806 16.5456 6.73406C16.2559 7.19421 15.8115 7.80942 15.198 8.42289C13.9768 9.64407 12.1097 10.84 9.4312 10.84C6.75267 10.84 4.8856 9.64407 3.66442 8.42289C3.05095 7.80942 2.60654 7.19421 2.31681 6.73406C2.24377 6.61806 2.18093 6.51249 2.12802 6.42ZM17.8623 6.42L18.7757 6.82703C18.8906 6.56846 18.8906 6.27154 18.7757 6.01297L17.8623 6.42Z" fill="#B7BEC0"/>
<path fill-rule="evenodd" clip-rule="evenodd" d="M9.43123 4.40889C8.32052 4.40889 7.42011 5.30929 7.42011 6.42C7.42011 7.53071 8.32052 8.43111 9.43123 8.43111C10.5419 8.43111 11.4423 7.53071 11.4423 6.42C11.4423 5.30929 10.5419 4.40889 9.43123 4.40889ZM5.42011 6.42C5.42011 4.20472 7.21595 2.40889 9.43123 2.40889C11.6465 2.40889 13.4423 4.20472 13.4423 6.42C13.4423 8.63528 11.6465 10.4311 9.43123 10.4311C7.21595 10.4311 5.42011 8.63528 5.42011 6.42Z" fill="#B7BEC0"/>
</svg>
